<svg xmlns="http://www.w3.org/2000/svg" style="display:none">
<symbol id="cfl-home" viewBox="0 0 24 24"><path d="M3 11.5 12 4l9 7.5"/><path d="M5.5 10.5V20h5v-5h3v5h5v-9.5"/></symbol>
<symbol id="cfl-inbox" viewBox="0 0 24 24"><path d="M4 5h16v14H4z"/><path d="M4 13h4l2 3h4l2-3h4"/></symbol>
<symbol id="cfl-calendar" viewBox="0 0 24 24"><rect x="4" y="5" width="16" height="15" rx="2"/><path d="M8 3v4M16 3v4M4 10h16"/></symbol>
<symbol id="cfl-roster" viewBox="0 0 24 24"><path d="M8 8a3 3 0 1 0 0-6 3 3 0 0 0 0 6Z"/><path d="M3 21v-2a5 5 0 0 1 10 0v2"/><path d="M17 11a3 3 0 1 0 0-6"/><path d="M16 21v-2a5 5 0 0 0-2-4"/></symbol>
<symbol id="cfl-depth-chart" viewBox="0 0 24 24"><path d="M12 4v4M7 12h10M7 12v4M17 12v4"/><rect x="9" y="2" width="6" height="4" rx="1"/><rect x="4" y="16" width="6" height="4" rx="1"/><rect x="14" y="16" width="6" height="4" rx="1"/></symbol>
<symbol id="cfl-game-plan" viewBox="0 0 24 24"><path d="M4 6h16v12H4z"/><path d="M8 9l2 2-2 2M16 9l-2 2 2 2M12 8v6"/></symbol>
<symbol id="cfl-scouting" viewBox="0 0 24 24"><circle cx="11" cy="11" r="6"/><path d="m16 16 5 5"/><path d="M8 11h6M11 8v6"/></symbol>
<symbol id="cfl-recruiting" viewBox="0 0 24 24"><path d="M12 3l2.8 5.7 6.2.9-4.5 4.4 1.1 6.2L12 17.3l-5.6 2.9 1.1-6.2L3 9.6l6.2-.9L12 3Z"/></symbol>
<symbol id="cfl-analytics" viewBox="0 0 24 24"><path d="M5 19V9M12 19V5M19 19v-7"/><path d="M3 19h18"/></symbol>
<symbol id="cfl-dynasty" viewBox="0 0 24 24"><path d="M8 21h8"/><path d="M12 17v4"/><path d="M7 4h10v4a5 5 0 0 1-10 0V4Z"/><path d="M7 7H4a3 3 0 0 0 3 3M17 7h3a3 3 0 0 1-3 3"/></symbol>
<symbol id="cfl-prospect" viewBox="0 0 24 24"><circle cx="12" cy="8" r="4"/><path d="M4 21a8 8 0 0 1 16 0"/><path d="m17 3 1 2 2 .3-1.5 1.4.4 2-1.9-1-1.9 1 .4-2L14 5.3l2-.3 1-2Z"/></symbol>
<symbol id="cfl-visit" viewBox="0 0 24 24"><path d="M12 21s7-5.5 7-12A7 7 0 0 0 5 9c0 6.5 7 12 7 12Z"/><circle cx="12" cy="9" r="2.5"/></symbol>
<symbol id="cfl-call" viewBox="0 0 24 24"><path d="M6 4l3 3-2 2c1.5 3 3.5 5 6.5 6.5l2-2 3 3-2 3c-6-.7-11.8-6.5-12.5-12.5L6 4Z"/></symbol>
<symbol id="cfl-text" viewBox="0 0 24 24"><path d="M4 5h16v11H8l-4 4V5Z"/><path d="M8 9h8M8 12h5"/></symbol>
<symbol id="cfl-offer" viewBox="0 0 24 24"><path d="M5 4h14v16H5z"/><path d="M8 8h8M8 12h8M8 16h5"/><path d="m15 16 2 2 4-4"/></symbol>
<symbol id="cfl-scholarship" viewBox="0 0 24 24"><path d="M3 8l9-4 9 4-9 4-9-4Z"/><path d="M6 10v5c2 2 10 2 12 0v-5"/><path d="M19 9v6"/><path d="M19 15l1 2h-2l1-2Z"/></symbol>
<symbol id="cfl-commit" viewBox="0 0 24 24"><path d="M7 12l3 3 7-8"/><circle cx="12" cy="12" r="9"/></symbol>
<symbol id="cfl-pipeline" viewBox="0 0 24 24"><path d="M4 7h6a4 4 0 0 1 4 4v6"/><path d="M14 11h6"/><path d="M17 8l3 3-3 3"/><path d="M11 14l3 3 3-3"/></symbol>
<symbol id="cfl-target" viewBox="0 0 24 24"><circle cx="12" cy="12" r="8"/><circle cx="12" cy="12" r="4"/><path d="M12 2v4M12 18v4M2 12h4M18 12h4"/></symbol>
<symbol id="cfl-lead" viewBox="0 0 24 24"><path d="M5 20V4"/><path d="M5 4h12l-2 4 2 4H5"/></symbol>
<symbol id="cfl-player" viewBox="0 0 24 24"><circle cx="12" cy="6" r="3"/><path d="M6 21v-4a6 6 0 0 1 12 0v4"/><path d="M8 11h8"/></symbol>
<symbol id="cfl-captain" viewBox="0 0 24 24"><path d="M17 6a7 7 0 1 0 0 12"/><path d="M15 8h4M15 16h4"/></symbol>
<symbol id="cfl-injured" viewBox="0 0 24 24"><circle cx="12" cy="12" r="9"/><path d="M12 7v10M7 12h10"/></symbol>
<symbol id="cfl-suspended" viewBox="0 0 24 24"><path d="M7 20h10"/><path d="M12 4v4"/><path d="M6 8h12"/><path d="M8 8l-3 6h6L8 8Zm8 0-3 6h6l-3-6Z"/></symbol>
<symbol id="cfl-fatigue" viewBox="0 0 24 24"><path d="M5 12h14"/><path d="M7 8h10"/><path d="M9 16h6"/><path d="m6 20 12-16"/></symbol>
<symbol id="cfl-morale" viewBox="0 0 24 24"><circle cx="12" cy="12" r="9"/><path d="M8 10h.01M16 10h.01"/><path d="M8 15c2.5 2 5.5 2 8 0"/></symbol>
<symbol id="cfl-chemistry" viewBox="0 0 24 24"><path d="M8 11a4 4 0 1 0 0-8 4 4 0 0 0 0 8Z"/><path d="M16 11a4 4 0 1 0 0-8"/><path d="M3 21a5 5 0 0 1 10 0"/><path d="M12 21a5 5 0 0 1 9 0"/></symbol>
<symbol id="cfl-rating" viewBox="0 0 24 24"><path d="M12 3l2.5 5 5.5.8-4 3.9 1 5.5-5-2.6-5 2.6 1-5.5-4-3.9 5.5-.8L12 3Z"/><text x="12" y="15" text-anchor="middle" font-size="6" font-family="Arial" fill="currentColor" stroke="none">99</text></symbol>
<symbol id="cfl-attribute" viewBox="0 0 24 24"><path d="M4 19h16"/><path d="M6 16l4-4 3 3 5-8"/><path d="M18 7h-4M18 7v4"/></symbol>
<symbol id="cfl-formation" viewBox="0 0 24 24"><circle cx="12" cy="5" r="1.5"/><circle cx="6" cy="11" r="1.5"/><circle cx="18" cy="11" r="1.5"/><circle cx="9" cy="18" r="1.5"/><circle cx="15" cy="18" r="1.5"/><path d="M12 6.5v4M6 12.5l3 4M18 12.5l-3 4M7.5 11h9"/></symbol>
<symbol id="cfl-play-call" viewBox="0 0 24 24"><path d="M6 3h12v18H6z"/><path d="M9 7h6M9 11h6M9 15h4"/></symbol>
<symbol id="cfl-audible" viewBox="0 0 24 24"><path d="M4 12h3l4-4v8l-4-4H4Z"/><path d="M15 9a4 4 0 0 1 0 6M18 6a8 8 0 0 1 0 12"/></symbol>
<symbol id="cfl-hot-route" viewBox="0 0 24 24"><path d="M4 18c8 0 6-12 16-12"/><path d="M16 5h4v4"/><path d="M8 18l-2-3"/></symbol>
<symbol id="cfl-practice" viewBox="0 0 24 24"><path d="M4 7h16v10H4z"/><path d="M9 7v10M15 7v10"/><path d="M12 10v4"/></symbol>
<symbol id="cfl-strategy" viewBox="0 0 24 24"><path d="M4 18 18 4"/><path d="M18 4h-5M18 4v5"/><path d="M6 6h4v4H6zM14 14h4v4h-4z"/></symbol>
<symbol id="cfl-key-matchup" viewBox="0 0 24 24"><path d="M8 8a4 4 0 0 1 8 0v8a4 4 0 0 1-8 0V8Z"/><path d="M8 12h8"/><path d="M4 12h4M16 12h4"/></symbol>
<symbol id="cfl-scouting-report" viewBox="0 0 24 24"><path d="M5 4h10l4 4v12H5z"/><path d="M15 4v4h4"/><path d="M8 12h8M8 16h5"/><circle cx="16" cy="16" r="3"/><path d="m18 18 3 3"/></symbol>
<symbol id="cfl-budget" viewBox="0 0 24 24"><circle cx="12" cy="12" r="9"/><path d="M12 7v10M15 9.5c-.7-1-4-1.5-4 1 0 2 5 1.5 5 4 0 2.5-4 2-5 1"/></symbol>
<symbol id="cfl-staff" viewBox="0 0 24 24"><path d="M8 8a3 3 0 1 0 0-6 3 3 0 0 0 0 6Z"/><path d="M3 21v-2a5 5 0 0 1 10 0v2"/><path d="M17 13a2.5 2.5 0 1 0 0-5"/><path d="M16 21v-1.5a4 4 0 0 0-2-3.5"/></symbol>
<symbol id="cfl-facilities" viewBox="0 0 24 24"><path d="M3 21h18"/><path d="M5 21V8l7-4 7 4v13"/><path d="M9 21v-6h6v6"/><path d="M8 11h2M14 11h2"/></symbol>
<symbol id="cfl-upgrades" viewBox="0 0 24 24"><path d="M4 18h16"/><path d="M6 16l5-5 3 3 5-8"/><path d="M15 6h4v4"/></symbol>
<symbol id="cfl-academics" viewBox="0 0 24 24"><path d="M4 5h12a4 4 0 0 1 4 4v10H8a4 4 0 0 0-4-4V5Z"/><path d="M8 5v10"/></symbol>
<symbol id="cfl-brand" viewBox="0 0 24 24"><path d="M12 3l8 4v6c0 5-3.5 7.5-8 9-4.5-1.5-8-4-8-9V7l8-4Z"/><path d="m9 12 2 2 4-4"/></symbol>
<symbol id="cfl-boosters" viewBox="0 0 24 24"><path d="M7 11a4 4 0 1 0 0-8 4 4 0 0 0 0 8Z"/><path d="M17 11a4 4 0 1 0 0-8"/><path d="M3 21v-2a5 5 0 0 1 8-4"/><path d="M13 21v-2a5 5 0 0 1 8 0v2"/><path d="M12 14l2 2 4-5"/></symbol>
<symbol id="cfl-fan-interest" viewBox="0 0 24 24"><path d="M7 20V4l10 4-10 4"/><path d="M7 12l10 4-10 4"/></symbol>
<symbol id="cfl-conference" viewBox="0 0 24 24"><path d="M4 7h16v11H4z"/><path d="M7 10h10M7 14h10"/><path d="M10 4h4v3"/></symbol>
<symbol id="cfl-rivals" viewBox="0 0 24 24"><path d="M8 6l8 12M16 6 8 18"/><path d="M4 4l4 2-4 2V4Zm16 0-4 2 4 2V4Z"/></symbol>
<symbol id="cfl-up" viewBox="0 0 24 24"><circle cx="12" cy="12" r="10" fill="#22c55e" stroke="none"/><path d="M12 17V7M8 11l4-4 4 4" stroke="#fff"/></symbol>
<symbol id="cfl-down" viewBox="0 0 24 24"><circle cx="12" cy="12" r="10" fill="#ef4444" stroke="none"/><path d="M12 7v10M8 13l4 4 4-4" stroke="#fff"/></symbol>
<symbol id="cfl-stable" viewBox="0 0 24 24"><circle cx="12" cy="12" r="10" fill="#6b7280" stroke="none"/><path d="M7 12h10" stroke="#fff"/></symbol>
<symbol id="cfl-positive" viewBox="0 0 24 24"><path d="M7 11v9H4v-9h3Z"/><path d="M7 11l4-7 1 1c1 1 1 2 0 4h5a2 2 0 0 1 2 2l-1 6a3 3 0 0 1-3 3H7"/></symbol>
<symbol id="cfl-negative" viewBox="0 0 24 24"><path d="M7 13V4H4v9h3Z"/><path d="M7 13l4 7 1-1c1-1 1-2 0-4h5a2 2 0 0 0 2-2l-1-6a3 3 0 0 0-3-3H7"/></symbol>
<symbol id="cfl-warning" viewBox="0 0 24 24"><path d="M12 3 22 20H2L12 3Z"/><path d="M12 9v5M12 17h.01"/></symbol>
<symbol id="cfl-info" viewBox="0 0 24 24"><circle cx="12" cy="12" r="9"/><path d="M12 11v6M12 7h.01"/></symbol>
<symbol id="cfl-new" viewBox="0 0 24 24"><path d="M12 2l2.4 4.5 5 .5-3.4 3.7.9 5-4.9-2.4-4.9 2.4.9-5L4.6 7l5-.5L12 2Z"/><text x="12" y="12.5" text-anchor="middle" font-size="4.5" font-family="Arial" fill="currentColor" stroke="none">NEW</text></symbol>
<symbol id="cfl-locked" viewBox="0 0 24 24"><rect x="5" y="10" width="14" height="10" rx="2"/><path d="M8 10V7a4 4 0 0 1 8 0v3"/></symbol>
<symbol id="cfl-unlocked" viewBox="0 0 24 24"><rect x="5" y="10" width="14" height="10" rx="2"/><path d="M8 10V7a4 4 0 0 1 7-2"/></symbol>
<symbol id="cfl-complete" viewBox="0 0 24 24"><circle cx="12" cy="12" r="9"/><path d="m8 12 3 3 6-7"/></symbol>
<symbol id="cfl-settings" viewBox="0 0 24 24"><path d="M12 8a4 4 0 1 0 0 8 4 4 0 0 0 0-8Z"/><path d="M4 12h2M18 12h2M12 4v2M12 18v2M6.3 6.3l1.4 1.4M16.3 16.3l1.4 1.4M17.7 6.3l-1.4 1.4M7.7 16.3l-1.4 1.4"/></symbol>
<symbol id="cfl-search" viewBox="0 0 24 24"><circle cx="11" cy="11" r="7"/><path d="m16 16 5 5"/></symbol>
<symbol id="cfl-filter" viewBox="0 0 24 24"><path d="M4 5h16l-6 7v6l-4 2v-8L4 5Z"/></symbol>
<symbol id="cfl-sort" viewBox="0 0 24 24"><path d="M8 4v16M5 7l3-3 3 3M16 20V4M13 17l3 3 3-3"/></symbol>
<symbol id="cfl-help" viewBox="0 0 24 24"><circle cx="12" cy="12" r="9"/><path d="M9.5 9a2.5 2.5 0 0 1 5 0c0 2-2.5 2-2.5 4M12 17h.01"/></symbol>
<symbol id="cfl-save" viewBox="0 0 24 24"><path d="M5 4h12l2 2v14H5z"/><path d="M8 4v6h8V4"/><path d="M8 20v-6h8v6"/></symbol>
<symbol id="cfl-delete" viewBox="0 0 24 24"><path d="M4 7h16M9 7V4h6v3M7 7l1 13h8l1-13"/><path d="M10 11v5M14 11v5"/></symbol>
<symbol id="cfl-back" viewBox="0 0 24 24"><path d="M19 12H5"/><path d="m12 5-7 7 7 7"/></symbol>
<symbol id="cfl-confirm" viewBox="0 0 24 24"><path d="m4 12 5 5L20 6"/></symbol>
</svg>