<svg xmlns="http://www.w3.org/2000/svg" viewBox="0 0 1024 1024" role="img" aria-label="Placeholder football player">
  <defs>
    <linearGradient id="uniform" x1="0" x2="1" y1="0" y2="1">
      <stop offset="0" stop-color="#2b2f33"/>
      <stop offset="0.58" stop-color="#15181b"/>
      <stop offset="1" stop-color="#050607"/>
    </linearGradient>
    <linearGradient id="trim" x1="0" x2="1">
      <stop offset="0" stop-color="#ffb81c"/>
      <stop offset="1" stop-color="#9f6b08"/>
    </linearGradient>
    <filter id="shadow" x="-20%" y="-20%" width="140%" height="140%">
      <feDropShadow dx="0" dy="28" stdDeviation="24" flood-color="#000" flood-opacity="0.65"/>
    </filter>
  </defs>
  <g filter="url(#shadow)">
    <path d="M512 70c-79 0-132 52-132 128 0 34 12 68 34 92l-15 48h226l-15-48c22-24 34-58 34-92 0-76-53-128-132-128Z" fill="#24282c"/>
    <path d="M370 184c28-67 96-96 169-82 59 11 102 50 116 106-28-24-77-37-142-37-61 0-110 5-143 13Z" fill="#0b0c0e"/>
    <path d="M258 382c70-38 151-58 254-58s184 20 254 58l72 274-152 44-24-120v350H362V580l-24 120-152-44 72-274Z" fill="url(#uniform)"/>
    <path d="M362 930h300l-24-170H386l-24 170Z" fill="#0b0d0f"/>
    <path d="M270 408c41-28 91-48 149-59l93 123 93-123c58 11 108 31 149 59l-52 81c-62-34-124-50-190-50s-128 16-190 50l-52-81Z" fill="url(#trim)" opacity="0.9"/>
    <path d="M459 528h106v248H459z" fill="#f7f0df" opacity="0.92"/>
    <path d="M486 558h52v188h-52z" fill="#1a1c20"/>
    <path d="M216 654l132 38 24-99-121-43-35 104Zm592 0-132 38-24-99 121-43 35 104Z" fill="#1a1d21"/>
    <path d="M397 366h230l-115 138-115-138Z" fill="#0d0f12"/>
    <path d="M428 374h168l-84 96-84-96Z" fill="#f7f0df" opacity="0.15"/>
  </g>
</svg>
