<svg xmlns="http://www.w3.org/2000/svg" width="2560" height="1440" viewBox="0 0 2560 1440" role="img" aria-label="Original college football stadium background">
  <defs>
    <linearGradient id="sky" x1="0" x2="1" y1="0" y2="1">
      <stop offset="0" stop-color="#171a18"/>
      <stop offset="0.48" stop-color="#40311f"/>
      <stop offset="1" stop-color="#0d0f0e"/>
    </linearGradient>
    <radialGradient id="lights" cx="50%" cy="28%" r="58%">
      <stop offset="0" stop-color="#e8c778" stop-opacity="0.72"/>
      <stop offset="0.42" stop-color="#c7a45b" stop-opacity="0.18"/>
      <stop offset="1" stop-color="#000" stop-opacity="0"/>
    </radialGradient>
    <linearGradient id="field" x1="0" x2="0" y1="0" y2="1">
      <stop offset="0" stop-color="#28422f"/>
      <stop offset="1" stop-color="#101c15"/>
    </linearGradient>
    <filter id="soft" x="-20%" y="-20%" width="140%" height="140%">
      <feGaussianBlur stdDeviation="10"/>
    </filter>
  </defs>
  <rect width="2560" height="1440" fill="url(#sky)"/>
  <rect width="2560" height="1440" fill="url(#lights)"/>
  <path d="M0 718C332 560 676 494 1032 520c454 33 817 13 1120-60 159-39 293-86 408-138v434c-347 143-721 203-1123 180-494-28-973 33-1437 183Z" fill="#111615" opacity="0.78"/>
  <path d="M120 784c357-118 730-158 1119-119 454 45 854 7 1201-116v220c-372 103-764 133-1175 91-384-39-766 3-1145 126Z" fill="#222620"/>
  <g opacity="0.42">
    <path d="M176 668h2208" stroke="#d6c08a" stroke-width="3"/>
    <path d="M260 610h2040" stroke="#d6c08a" stroke-width="2"/>
    <path d="M352 560h1856" stroke="#d6c08a" stroke-width="2"/>
    <path d="M444 516h1672" stroke="#d6c08a" stroke-width="2"/>
  </g>
  <g filter="url(#soft)" opacity="0.8">
    <circle cx="430" cy="390" r="42" fill="#f2d68a"/>
    <circle cx="2140" cy="330" r="46" fill="#f2d68a"/>
    <circle cx="1280" cy="250" r="34" fill="#f2d68a"/>
  </g>
  <path d="M0 1032c428-118 856-171 1284-157 421 15 846-44 1276-176v741H0Z" fill="url(#field)"/>
  <g opacity="0.38" stroke="#d7e6ce">
    <path d="M0 1128h2560" stroke-width="5"/>
    <path d="M240 1046l-88 394" stroke-width="4"/>
    <path d="M560 1002l-38 438" stroke-width="4"/>
    <path d="M920 980l6 460" stroke-width="4"/>
    <path d="M1280 972v468" stroke-width="4"/>
    <path d="M1640 980l-6 460" stroke-width="4"/>
    <path d="M2000 1002l38 438" stroke-width="4"/>
    <path d="M2320 1046l88 394" stroke-width="4"/>
  </g>
  <rect width="2560" height="1440" fill="#050606" opacity="0.22"/>
</svg>
