<svg xmlns="http://www.w3.org/2000/svg" width="1920" height="640" viewBox="0 0 1920 640" role="img" aria-label="Original program office header">
  <defs>
    <linearGradient id="bg" x1="0" x2="1" y1="0" y2="1">
      <stop offset="0" stop-color="#111514"/>
      <stop offset="0.42" stop-color="#302a20"/>
      <stop offset="1" stop-color="#171a18"/>
    </linearGradient>
    <linearGradient id="desk" x1="0" x2="1">
      <stop offset="0" stop-color="#24180f"/>
      <stop offset="1" stop-color="#5c4328"/>
    </linearGradient>
  </defs>
  <rect width="1920" height="640" fill="url(#bg)"/>
  <rect x="0" y="455" width="1920" height="185" fill="url(#desk)"/>
  <path d="M0 430c246-68 514-91 803-68 397 31 779-12 1117-129v156c-359 95-733 130-1123 103-286-20-552 6-797 78Z" fill="#142219"/>
  <g opacity="0.7">
    <rect x="118" y="114" width="390" height="250" rx="6" fill="#1d231f" stroke="#4b5149"/>
    <path d="M146 328h334M146 286h334M146 244h334M146 202h334M146 160h334" stroke="#343a34"/>
    <path d="M168 306h190M168 264h240M168 222h138M168 180h210" stroke="#c7a45b" stroke-width="4"/>
  </g>
  <g opacity="0.82">
    <rect x="1330" y="92" width="428" height="278" rx="8" fill="#101312" stroke="#4b5149"/>
    <path d="M1368 326h350M1368 280h350M1368 234h350M1368 188h350M1368 142h350" stroke="#343a34"/>
    <circle cx="1405" cy="142" r="9" fill="#74a66a"/>
    <circle cx="1405" cy="188" r="9" fill="#d4a84d"/>
    <circle cx="1405" cy="234" r="9" fill="#7d9dbb"/>
    <circle cx="1405" cy="280" r="9" fill="#c7a45b"/>
  </g>
  <g opacity="0.45">
    <circle cx="910" cy="156" r="112" fill="none" stroke="#c7a45b" stroke-width="10"/>
    <path d="M838 156h144M910 84v144" stroke="#c7a45b" stroke-width="10"/>
  </g>
  <rect x="770" y="470" width="380" height="46" rx="6" fill="#0f1110" opacity="0.72"/>
  <rect x="1210" y="492" width="252" height="28" rx="4" fill="#0f1110" opacity="0.52"/>
  <rect width="1920" height="640" fill="#000" opacity="0.18"/>
</svg>
